<svg width="287" height="293" viewBox="0 0 287 293" fill="none" xmlns="http://www.w3.org/2000/svg">
<path d="M147.832 8.46447C145.879 6.51184 142.714 6.51184 140.761 8.46446L108.941 40.2843C106.989 42.2369 106.989 45.4027 108.941 47.3553C110.894 49.3079 114.06 49.3079 116.012 47.3553L144.297 19.0711L172.581 47.3553C174.533 49.308 177.699 49.308 179.652 47.3554C181.604 45.4027 181.604 42.2369 179.652 40.2843L147.832 8.46447ZM144.297 110L149.297 110L149.297 12L144.297 12L139.297 12L139.297 110L144.297 110Z" fill="#63ADED"/>
<path d="M251.593 54C251.593 51.2386 249.354 49 246.593 49L201.593 49C198.832 49 196.593 51.2386 196.593 54C196.593 56.7614 198.832 59 201.593 59H241.593V99C241.593 101.761 243.832 104 246.593 104C249.354 104 251.593 101.761 251.593 99V54ZM177.297 123.296L180.832 126.832L250.129 57.5355L246.593 54L243.057 50.4645L173.761 119.761L177.297 123.296Z" fill="#63ADED"/>
<path d="M37 54C37 51.2386 39.2386 49 42 49L87 49C89.7615 49 92 51.2386 92 54C92 56.7614 89.7615 59 87 59H47V99C47 101.761 44.7615 104 42 104C39.2386 104 37 101.761 37 99L37 54ZM111.297 123.296L107.761 126.832L38.4645 57.5355L42 54L45.5356 50.4645L114.832 119.761L111.297 123.296Z" fill="#63ADED"/>
<path d="M127.42 80H161.347C194.686 80 220.64 108.948 217.015 142.089L208.535 219.624C206.218 240.81 192.076 258.843 172.054 266.146L164.621 268.856C152.498 273.277 139.221 273.376 127.034 269.137L117.431 265.796C97.0177 258.694 82.5128 240.48 80.1627 218.994L71.7516 142.089C68.1268 108.948 94.0813 80 127.42 80Z" fill="#292929" stroke="#63ADED" stroke-width="10"/>
<path d="M187.223 218.48C188.077 220.08 188.13 221.68 187.383 223.28C186.85 224.987 185.943 226.267 184.663 227.12C184.023 227.653 183.437 228.133 182.903 228.56C182.37 228.88 181.783 229.147 181.143 229.36C179.97 230 178.583 230.213 176.983 230C176.343 230 175.757 229.893 175.223 229.68C174.69 229.467 174.157 229.2 173.623 228.88C173.09 228.56 172.503 228.24 171.863 227.92C171.33 227.493 170.797 227.067 170.263 226.64C169.623 226.107 169.037 225.627 168.503 225.2C167.97 224.773 167.49 224.293 167.063 223.76C166.53 223.227 166.05 222.693 165.623 222.16C165.197 221.627 164.77 221.147 164.343 220.72L162.423 218.64L131.703 186.48L132.183 218.64V220.08C132.183 220.507 132.13 220.987 132.023 221.52C131.917 221.947 131.81 222.427 131.703 222.96C131.383 224.347 131.01 225.573 130.583 226.64C130.37 227.28 130.05 227.813 129.623 228.24C129.303 228.667 128.93 229.093 128.503 229.52C127.33 230.587 125.943 231.173 124.343 231.28C122.743 231.813 121.25 231.973 119.863 231.76C118.583 231.653 117.25 231.28 115.863 230.64C114.797 230 113.837 228.933 112.983 227.44C112.77 227.013 112.61 226.747 112.503 226.64C112.503 226.533 112.397 226.16 112.183 225.52C111.543 224.453 111.223 223.387 111.223 222.32C111.117 221.68 111.01 221.093 110.903 220.56C110.903 220.027 110.85 219.44 110.743 218.8C110.637 218.373 110.583 217.947 110.583 217.52C110.583 217.093 110.583 216.667 110.583 216.24C110.69 215.707 110.743 215.28 110.743 214.96C110.743 214.533 110.743 214.053 110.743 213.52L110.583 200.88L110.423 177.36C110.423 170.533 110.263 163.173 109.943 155.28C109.837 151.44 109.783 148.027 109.783 145.04C109.783 142.053 109.837 138.693 109.943 134.96V134.32C110.157 133.147 110.263 132.027 110.263 130.96C110.263 129.787 110.317 128.667 110.423 127.6C110.423 125.467 110.903 123.333 111.863 121.2C112.503 119.6 113.623 118.32 115.223 117.36C116.077 116.827 116.877 116.507 117.623 116.4C118.477 116.187 119.383 115.973 120.343 115.76C121.09 115.76 121.783 115.813 122.423 115.92C123.17 116.027 123.863 116.133 124.503 116.24C125.89 116.453 127.17 117.04 128.343 118C128.663 118.32 128.93 118.693 129.143 119.12C129.463 119.547 129.73 120.08 129.943 120.72C130.477 121.573 130.85 122.8 131.063 124.4C131.17 125.04 131.223 125.68 131.223 126.32C131.33 126.96 131.383 127.653 131.383 128.4V134.96L131.543 154.48C133.25 152.987 134.903 151.44 136.503 149.84C138.21 148.24 139.863 146.533 141.463 144.72C144.343 141.733 147.17 138.853 149.943 136.08C152.823 133.2 155.703 130.373 158.583 127.6L159.063 127.12C159.917 126.267 160.77 125.467 161.623 124.72C162.583 123.867 163.49 123.067 164.343 122.32C165.943 120.507 167.917 119.227 170.263 118.48C171.757 117.52 173.517 117.147 175.543 117.36C176.503 117.467 177.357 117.68 178.103 118C178.957 118.32 179.757 118.747 180.503 119.28C181.037 119.813 181.57 120.293 182.103 120.72C182.637 121.04 183.063 121.467 183.383 122C184.237 122.747 184.77 123.867 184.983 125.36C184.983 126.533 184.77 127.6 184.343 128.56C184.023 129.093 183.703 129.627 183.383 130.16C183.063 130.693 182.69 131.227 182.263 131.76C181.73 132.4 181.25 132.987 180.823 133.52C180.397 134.053 179.917 134.587 179.383 135.12C178.957 135.653 178.477 136.133 177.943 136.56C177.517 136.987 177.09 137.467 176.663 138L174.583 140.08L144.663 170.64C146.263 172.24 147.917 173.947 149.623 175.76C151.437 177.467 153.143 179.173 154.743 180.88C156.343 182.48 157.837 184.027 159.223 185.52C160.61 186.907 161.783 188.08 162.743 189.04C165.623 192.027 168.397 195.013 171.063 198C173.73 200.88 176.343 203.813 178.903 206.8L179.383 207.28C180.237 208.133 181.037 209.04 181.783 210C182.53 210.853 183.223 211.707 183.863 212.56C185.463 214.373 186.583 216.347 187.223 218.48Z" fill="white"/>
</svg>
